<?xml version="1.0" encoding="iso-8859-1"?>
<!-- Generator: Adobe Illustrator 18.1.1, SVG Export Plug-In . SVG Version: 6.00 Build 0)  -->
<svg version="1.1" id="Capa_1" xmlns="http://www.w3.org/2000/svg" xmlns:xlink="http://www.w3.org/1999/xlink" x="0px" y="0px"
	 viewBox="0 0 493.95 493.95" style="enable-background:new 0 0 493.95 493.95;" xml:space="preserve">
<g>
	<g id="Icons_17_">
		<path d="M481.587,333.09c-61.458-49.497-139.213-75.562-218.021-78.809v-26.849c27.196-7.324,47.282-32.212,47.282-61.702
			c0-35.227-28.637-63.89-63.872-63.89c-35.232,0-63.904,28.663-63.904,63.89c0,9.159,7.437,16.587,16.587,16.587
			c9.171,0,16.59-7.428,16.59-16.587c0-16.937,13.802-30.716,30.728-30.716c16.929,0,30.698,13.779,30.698,30.716
			c0,16.935-13.77,30.713-30.698,30.713c-9.151,0-16.587,7.425-16.587,16.587v41.25c-78.809,3.239-156.563,29.303-218.024,78.809
			c-14.27,11.493-16.521,32.373-5.021,46.645c11.471,14.264,32.367,16.547,46.64,5.031c106.427-85.685,279.577-85.685,385.975,0
			c6.139,4.941,13.491,7.338,20.799,7.338c9.688,0,19.309-4.229,25.852-12.369C498.111,365.463,495.843,344.583,481.587,333.09z"/>
	</g>
</g>
<g>
</g>
<g>
</g>
<g>
</g>
<g>
</g>
<g>
</g>
<g>
</g>
<g>
</g>
<g>
</g>
<g>
</g>
<g>
</g>
<g>
</g>
<g>
</g>
<g>
</g>
<g>
</g>
<g>
</g>
</svg>
