<?xml version="1.0" encoding="iso-8859-1"?>
<!-- Generator: Adobe Illustrator 18.1.1, SVG Export Plug-In . SVG Version: 6.00 Build 0)  -->
<svg version="1.1" id="Capa_1" xmlns="http://www.w3.org/2000/svg" xmlns:xlink="http://www.w3.org/1999/xlink" x="0px" y="0px"
	 viewBox="0 0 496.831 496.831" style="enable-background:new 0 0 496.831 496.831;" xml:space="preserve">
<g>
	<g id="Icons_11_">
		<path d="M282.044,203.485c-50.331-18.941-67.309-30.381-67.309-45.35c0-17.49,15.958-27.112,44.968-27.112
			c18.257,0,35.362,2.522,52.276,7.693c9.831,3.031,20.808,1.866,29.808-3.16c9.034-5.074,15.703-13.723,18.289-23.778l0.543-2.138
			c5.552-21.589-7.47-43.787-29.042-49.5c-14.81-3.895-31.31-6.446-49.117-7.555V35.224C282.461,15.805,266.648,0,247.225,0
			c-19.434,0-35.232,15.805-35.232,35.224v22.35c-62.043,13.911-100.339,55.961-100.339,110.662
			c0,68.347,59.344,97.085,111.03,114.477c42.318,14.3,58.804,27.161,58.804,45.862c0,19.23-19.023,30.702-50.888,30.702
			c-21.481,0-43.407-3.957-65.202-11.742c-9.704-3.479-20.777-2.682-29.873,2.137c-9.206,4.882-15.958,13.468-18.542,23.521
			l-1.18,4.66c-5.476,21.318,6.687,43.274,27.67,50.009c20.138,6.448,43.194,10.726,65.536,12.207v21.544
			c0,19.419,15.813,35.218,35.219,35.218c19.436,0,35.232-15.799,35.232-35.234v-26.392
			c64.404-13.053,105.718-57.719,105.718-114.958C385.177,263.916,354.3,228.969,282.044,203.485z"/>
	</g>
</g>
<g>
</g>
<g>
</g>
<g>
</g>
<g>
</g>
<g>
</g>
<g>
</g>
<g>
</g>
<g>
</g>
<g>
</g>
<g>
</g>
<g>
</g>
<g>
</g>
<g>
</g>
<g>
</g>
<g>
</g>
</svg>
