<?xml version="1.0" encoding="iso-8859-1"?>
<!-- Generator: Adobe Illustrator 16.0.0, SVG Export Plug-In . SVG Version: 6.00 Build 0)  -->
<!DOCTYPE svg PUBLIC "-//W3C//DTD SVG 1.1//EN" "http://www.w3.org/Graphics/SVG/1.1/DTD/svg11.dtd">
<svg version="1.1" id="Capa_1" xmlns="http://www.w3.org/2000/svg" xmlns:xlink="http://www.w3.org/1999/xlink" x="0px" y="0px"
	 width="482.562px" height="482.562px" viewBox="0 0 482.562 482.562" style="enable-background:new 0 0 482.562 482.562;"
	 xml:space="preserve">
<g>
	<g>
		<g>
			<path d="M457.141,106.585c-5.055-6.406-12.772-10.156-20.944-10.156H164.751c-8.516,0-16.52,4.082-21.543,10.945
				c-5.023,6.898-6.453,15.758-3.859,23.855l49.961,156.158c2.199,6.885,8.59,11.549,15.805,11.549H408.35
				c7.672,0,14.349-5.268,16.138-12.717l37.646-156.89C464.039,121.391,462.195,113.007,457.141,106.585z"/>
			<path d="M450.719,328.488H188.591c-9.293,0-17.465-5.949-20.313-14.773L96.122,90.07c-6.809-21.133-26.305-35.336-48.508-35.336
				h-15.77c-13.422,0-24.297,10.883-24.297,24.297c0,13.43,10.875,24.297,24.297,24.297h15.77c1.039,0,1.938,0.664,2.254,1.645
				l72.156,223.642c9.359,28.996,36.109,48.469,66.566,48.469h262.129c13.422,0,24.297-10.867,24.297-24.297
				C475.016,339.37,464.141,328.488,450.719,328.488z"/>
			<path d="M180.88,71.562h230.917c3.135,0,5.902-2.056,6.811-5.063c0.918-3.004-0.241-6.246-2.854-7.988l-19.336-12.922
				c-4.246-2.815-9.688-3.147-14.246-0.84l-10.938,5.555c-14.819,7.513-32.85,4.191-44.018-8.133l-8.02-8.824
				c-2.681-2.961-6.484-4.651-10.474-4.651h-31.25c-3.242,0-6.383-1.105-8.897-3.133L240.91,3.149
				c-6.004-4.855-14.793-4.004-19.742,1.914l-45.754,54.813c-1.773,2.117-2.152,5.078-0.98,7.574
				C175.602,69.949,178.118,71.562,180.88,71.562z"/>
			<path d="M205.817,405.066c-21.402,0-38.746,17.352-38.746,38.754c0,21.401,17.344,38.742,38.746,38.742
				c21.395,0,38.746-17.341,38.746-38.742C244.562,422.418,227.212,405.066,205.817,405.066z"/>
			<path d="M409.312,405.066c-21.395,0-38.746,17.352-38.746,38.754c0,21.401,17.353,38.742,38.746,38.742
				c21.402,0,38.75-17.341,38.75-38.742C448.062,422.418,430.715,405.066,409.312,405.066z"/>
		</g>
	</g>
</g>
<g>
</g>
<g>
</g>
<g>
</g>
<g>
</g>
<g>
</g>
<g>
</g>
<g>
</g>
<g>
</g>
<g>
</g>
<g>
</g>
<g>
</g>
<g>
</g>
<g>
</g>
<g>
</g>
<g>
</g>
</svg>
